<svg width="19" height="15" viewBox="0 0 19 15" fill="none" xmlns="http://www.w3.org/2000/svg">
<path d="M18.1964 8.77946C19.035 8.45738 19.0566 7.27879 18.2304 6.9262L2.37391 0.159565C2.13417 0.0572538 1.86394 0.0526009 1.62082 0.146598L0.978275 0.395012C0.292463 0.660156 0.117697 1.5499 0.652264 2.05475L5.74718 6.8665C5.91092 7.02113 6.12206 7.11597 6.34641 7.13565L15 7.89474L6.34641 8.65382C6.12206 8.6735 5.91092 8.76834 5.74718 8.92298L1.15566 13.2593C0.522617 13.8572 0.909147 14.9227 1.77771 14.9843C1.92373 14.9946 2.07083 14.9728 2.20748 14.9203L18.1964 8.77946Z" fill="white"/>
</svg>
